# xmcd
#
# Track frame offsets:
#	150
#	12006
#	21966
#	34753
#	47595
#	57450
#	68687
#	84879
#	100735
#	113889
#	125843
#	140007
#	151600
#	169455
#	183802
#	197858
#	209993
#	221090
#	233475
#	245293
#
# Disc length: 3432 seconds
#
# Revision: 0
# Processed by: cddbd v1.5.2PL0 Copyright (c) Steve Scherf et al.
# Submitted via: dBpowerAMP V4.0
#
DISCID=170d6614
DTITLE=Various Artist - Country classics
DYEAR=1900
DGENRE=Country
TTITLE0=Rogers, Kenny - Me And Bobby McGee
TTITLE1=Johnny Cash And The Tennessee Two - Hey Porter
TTITLE2=Lynn Anderson - Rose Garden
TTITLE3=Billie Jo Spears - Dallas
TTITLE4=Willie Nelson - If I Had Only Known
TTITLE5=Frankie Laine - Mule Train
TTITLE6=Lynn Anderson - Devil Went Down To Georgia
TTITLE7=Slim Whitman - Down In The Valley
TTITLE8=Hank Williams - Hey Good Lookin'
TTITLE9=Billie Jo Spears - Look What They've Done To My Song
TTITLE10=Willie Nelson - So Much To Do
TTITLE11=Patsy Cline - I've Loved And Lost Again
TTITLE12=Rogers, Kenny - Something's Burning
TTITLE13=Billie Jo Spears - I'll Never Be Free
TTITLE14=Frankie Laine - Don't Fence Me In
TTITLE15=Willie Nelson - Following Me Around
TTITLE16=Slim Whitman - Singing The Blues
TTITLE17=Billie Jo Spears - The Cheatin' Kind
TTITLE18=Willie Nelson - Jimmy's Rag
TTITLE19=Hank Williams - Your Cheatin' Heart
EXTD=Demon music group\nwww.demonmusicgroup.co.uk/Product.aspx?ProductID=2793
EXTT0=
EXTT1=
EXTT2=
EXTT3=
EXTT4=
EXTT5=
EXTT6=
EXTT7=
EXTT8=
EXTT9=
EXTT10=
EXTT11=
EXTT12=
EXTT13=
EXTT14=
EXTT15=
EXTT16=
EXTT17=
EXTT18=
EXTT19=
PLAYORDER=
